mtllib materials.mtl
v 0.5533333 0.00999999 0.3991668
v 0.5533333 0.00999999 0.5591669
v 0.5533333 0.17 0.5591669
v 0.5533333 0.17 0.3991668
v -0.4066667 0.00999999 0.3991668
v -0.4066667 0.17 0.3991668
v -0.4066667 0.17 0.5591669
v -0.4066667 0.00999999 0.5591669
v 0.5533333 0.00999999 -0.5608332
v 0.5533332 0.00999999 0.3991668
v 0.5533332 0.17 0.3991668
v 0.5533333 0.17 -0.5608332
v 0.3933333 0.00999999 -0.5608332
v 0.3933333 0.17 -0.5608332
v 0.3933332 0.17 0.3991667
v 0.3933332 0.00999999 0.3991667
v -0.5666672 0.00999999 -0.4008341
v -0.406666 0.00999999 -0.4008348
v -0.4066661 0.17 -0.4008347
v -0.5666671 0.17 -0.4008341
v -0.5666669 0.00999999 0.5591669
v -0.5666668 0.17 0.5591669
v -0.4066662 0.17 0.5591669
v -0.4066661 0.00999999 0.5591669
v 0.3933333 0.00999999 -0.560833
v 0.3933332 0.00999999 -0.4008331
v 0.3933332 0.17 -0.4008331
v 0.3933333 0.17 -0.560833
v -0.5666666 0.00999999 -0.5608332
v -0.5666666 0.17 -0.5608332
v -0.5666667 0.17 -0.4008332
v -0.5666667 0.00999999 -0.4008332
v 0.5533333 -0.71 -0.5608332
v 0.5533333 -0.71 0.5591669
v 0.5533333 0.00999999 0.5591669
v 0.5533333 0.00999999 -0.5608332
v -0.4866667 -0.71 -0.5608332
v -0.4866667 0.00999999 -0.5608332
v -0.4866667 0.00999999 0.5591669
v -0.4866667 -0.71 0.5591669
v -0.4066667 -0.04999995 -0.4208331
v 0.3933333 -0.04999995 -0.4208332
v 0.3933333 0.03000009 -0.4208332
v -0.4066667 0.03000009 -0.4208331
v -0.4066666 -0.04999983 0.4291669
v -0.4066666 0.03000021 0.4291669
v 0.3933334 0.03000021 0.4291668
v 0.3933334 -0.04999983 0.4291668
vn 1 9.080401E-08 0
vn -1 8.475022E-08 0
vn 0 -1 -3.143225E-09
vn 0 1 -3.929031E-10
vn -2.235176E-08 0 -1
vn -2.05667E-08 0 1
vn 1 3.426492E-08 1.282794E-07
vn -1 1.484293E-09 -1.243989E-07
vn -1.076359E-15 -1 6.156054E-09
vn -4.462132E-16 1 2.552042E-09
vn 2.094446E-08 1.355253E-15 -1
vn -8.407414E-07 3.252608E-15 1
vn -4.217001E-06 3.950042E-07 -1
vn 2.607744E-08 8.195754E-08 1
vn -2.621236E-08 -1 3.124756E-15
vn 3.826165E-08 1 -4.561143E-15
vn -1 3.725291E-07 3.119153E-07
vn 1 5.587935E-07 9.038637E-08
vn 1 1.405715E-07 5.473746E-07
vn -1 -3.792221E-08 -3.611102E-07
vn -6.54743E-15 -1 3.744694E-08
vn -7.219138E-15 1 4.128866E-08
vn 1.147558E-07 0 -1
vn -1.850077E-07 -3.614008E-16 1
vn 1 3.754855E-09 -6.652304E-09
vn -1 -5.617498E-09 0
vn 0 -1 7.276596E-09
vn 7.16402E-09 1 -8.563561E-09
vn 1.235395E-08 1.034803E-08 -1
vn -2.884712E-08 0 1
vn -1.192093E-07 -4.446042E-08 -1
vn 1.192093E-07 4.446042E-08 1
vn 4.60183E-10 -1 1.748456E-07
vn -4.60183E-10 1 -1.748456E-07
vn -1 1.072813E-15 1.253451E-07
vn 1 -1.072813E-15 -1.253451E-07
vt 0.2222655 0.0427791
vt 0.2352852 0.03347928
vt 0.244585 0.04649901
vt 0.2315653 0.05579883
vt -0.2222655 0.04277914
vt -0.2315653 0.05579888
vt -0.244585 0.04649906
vt -0.2352852 0.03347933
vt 0.1644012 -0.003497898
vt 0.1321129 -0.09390512
vt 0.1471808 -0.0992865
vt 0.1794691 -0.008879283
vt -0.1644012 -0.003497898
vt -0.1794691 -0.008879283
vt -0.1471808 -0.0992865
vt -0.1321129 -0.09390512
vt -0.123431 0.1198532
vt -0.1377418 0.1270087
vt -0.1806743 0.04114365
vt -0.1663635 0.03398823
vt 0.123431 0.1198532
vt 0.1663635 0.03398824
vt 0.1806743 0.04114366
vt 0.1377418 0.1270087
vt 0.1441471 0.09857797
vt 0.2222655 0.04277908
vt 0.2315653 0.05579882
vt 0.1534469 0.1115977
vt -0.1441471 0.09857798
vt -0.1534469 0.1115977
vt -0.2315653 0.05579884
vt -0.2222655 0.0427791
vt 0.073994 0.0287904
vt 0.06861262 0.01372253
vt 0.1590198 -0.01856578
vt 0.1644012 -0.003497909
vt -0.073994 0.0287904
vt -0.1644012 -0.003497909
vt -0.1590198 -0.01856578
vt -0.06861262 0.01372253
vt -0.123431 0.1198532
vt -0.1377418 0.1270087
vt -0.1448972 0.1126978
vt -0.1305864 0.1055424
vt 0.1234309 0.1198534
vt 0.1305863 0.1055425
vt 0.1448971 0.1126979
vt 0.1377417 0.1270088
vt -0.1735191 0.01967696
vt -0.1663636 0.0339879
vt -0.1806745 0.0411433
vt -0.1878299 0.02683237
vt 0.1735189 0.01967737
vt 0.1878297 0.02683279
vt 0.1806743 0.04114369
vt 0.1663634 0.03398828
vt 0.0513921 -0.0820661
vt 0.1417994 -0.1143544
vt 0.1471808 -0.09928645
vt 0.05677345 -0.06699809
vt -0.0513921 -0.0820661
vt -0.05677345 -0.06699811
vt -0.1471808 -0.09928646
vt -0.1417994 -0.1143544
vt -0.1571666 0.08927836
vt -0.1664664 0.1022981
vt -0.244585 0.04649923
vt -0.2352852 0.03347949
vt 0.1571667 0.08927819
vt 0.2352853 0.03347917
vt 0.2445851 0.04649889
vt 0.1664666 0.1022979
vt 0.1441471 0.09857787
vt 0.1571669 0.08927806
vt 0.1664667 0.1022978
vt 0.153447 0.1115976
vt -0.1441471 0.09857791
vt -0.153447 0.1115976
vt -0.1664667 0.1022978
vt -0.1571669 0.08927809
vt 0.06861264 0.01372253
vt 0.03632434 -0.07668469
vt 0.0513922 -0.08206607
vt 0.0836805 0.008341135
vt -0.06861263 0.01372253
vt -0.0836805 0.008341133
vt -0.05139218 -0.08206607
vt -0.03632432 -0.07668468
vt -0.1305864 0.1055424
vt -0.1448972 0.1126978
vt -0.1878297 0.02683283
vt -0.1735189 0.01967742
vt 0.1305864 0.1055424
vt 0.1735189 0.01967742
vt 0.1878297 0.02683283
vt 0.1448972 0.1126978
vt 0.1022979 0.03998918
vt 0.1934361 -0.02510951
vt 0.2352852 0.03347931
vt 0.1441471 0.098578
vt -0.1022979 0.03998918
vt -0.1441471 0.098578
vt -0.2352852 0.03347931
vt -0.1934361 -0.0251095
vt 0.073994 0.0287904
vt 0.03901502 -0.06915077
vt 0.1444901 -0.1068204
vt 0.1794691 -0.008879283
vt -0.073994 0.02879039
vt -0.1794691 -0.008879284
vt -0.1444901 -0.1068204
vt -0.03901502 -0.06915077
vt -0.05903219 0.08765387
vt -0.123431 0.1198532
vt -0.1699412 0.02683281
vt -0.1055424 -0.005366568
vt 0.05903219 0.08765387
vt 0.1055424 -0.005366565
vt 0.1699412 0.02683282
vt 0.123431 0.1198533
vt -0.1609969 0.03130494
vt -0.1252198 0.1028591
vt -0.1323752 0.1064368
vt -0.1681523 0.03488265
vt 0.1609969 0.03130494
vt 0.1681523 0.03488266
vt 0.1323753 0.1064368
vt 0.1252198 0.1028591
vt 0.05489013 -0.06632555
vt 0.1349382 -0.09491412
vt 0.1618451 -0.01957476
vt 0.08179703 0.009013819
vt -0.05489013 -0.06632555
vt -0.08179703 0.009013819
vt -0.1618451 -0.01957476
vt -0.1349382 -0.09491412
vt -0.1520519 0.0855583
vt -0.1567018 0.09206817
vt -0.2258692 0.04266294
vt -0.2212193 0.03615306
vt 0.1520519 0.0855583
vt 0.2212193 0.03615306
vt 0.2258692 0.04266294
vt 0.1567018 0.09206817
o group1524408500
g mesh1524408500
usemtl mat10
f 4/4/1 3/3/1 2/2/1 1/1/1
f 8/8/2 7/7/2 6/6/2 5/5/2
f 2/12/3 8/11/3 5/10/3 1/9/3
f 6/16/4 7/15/4 3/14/4 4/13/4
f 5/20/5 6/19/5 4/18/5 1/17/5
f 3/24/6 7/23/6 8/22/6 2/21/6
f 12/28/7 11/27/7 10/26/7 9/25/7
f 16/32/8 15/31/8 14/30/8 13/29/8
f 10/36/9 16/35/9 13/34/9 9/33/9
f 14/40/10 15/39/10 11/38/10 12/37/10
f 13/44/11 14/43/11 12/42/11 9/41/11
f 11/48/12 15/47/12 16/46/12 10/45/12
f 20/52/13 19/51/13 18/50/13 17/49/13
f 24/56/14 23/55/14 22/54/14 21/53/14
f 18/60/15 24/59/15 21/58/15 17/57/15
f 22/64/16 23/63/16 19/62/16 20/61/16
f 21/68/17 22/67/17 20/66/17 17/65/17
f 19/72/18 23/71/18 24/70/18 18/69/18
f 28/76/19 27/75/19 26/74/19 25/73/19
f 32/80/20 31/79/20 30/78/20 29/77/20
f 26/84/21 32/83/21 29/82/21 25/81/21
f 30/88/22 31/87/22 27/86/22 28/85/22
f 29/92/23 30/91/23 28/90/23 25/89/23
f 27/96/24 31/95/24 32/94/24 26/93/24
usemtl mat21
f 36/100/25 35/99/25 34/98/25 33/97/25
f 40/104/26 39/103/26 38/102/26 37/101/26
f 34/108/27 40/107/27 37/106/27 33/105/27
f 38/112/28 39/111/28 35/110/28 36/109/28
f 37/116/29 38/115/29 36/114/29 33/113/29
f 35/120/30 39/119/30 40/118/30 34/117/30
usemtl mat23
f 44/124/31 43/123/31 42/122/31 41/121/31
f 48/128/32 47/127/32 46/126/32 45/125/32
f 42/132/33 48/131/33 45/130/33 41/129/33
f 46/136/34 47/135/34 43/134/34 44/133/34
f 45/140/35 46/139/35 44/138/35 41/137/35
f 43/144/36 47/143/36 48/142/36 42/141/36
